


<svg width="16" height="17" viewBox="0 0 16 17" fill="none" xmlns="http://www.w3.org/2000/svg">
<path d="M14.6667 6.94666C14.6246 6.82472 14.548 6.71762 14.4462 6.63833C14.3445 6.55905 14.2219 6.51099 14.0933 6.5L10.3 5.94666L8.6 2.5C8.54541 2.38728 8.46018 2.29223 8.35406 2.22571C8.24795 2.1592 8.12524 2.12392 8 2.12392C7.87477 2.12392 7.75206 2.1592 7.64595 2.22571C7.53983 2.29223 7.4546 2.38728 7.4 2.5L5.70001 5.94L1.90667 6.5C1.78329 6.51753 1.66729 6.56931 1.57184 6.64944C1.47639 6.72957 1.40531 6.83485 1.36667 6.95333C1.3313 7.06911 1.32813 7.19234 1.35749 7.30979C1.38685 7.42724 1.44764 7.53448 1.53334 7.62L4.28667 10.2867L3.62001 14.0733C3.59309 14.1989 3.60304 14.3297 3.64866 14.4498C3.69428 14.5698 3.77363 14.6742 3.87716 14.7503C3.98069 14.8263 4.10399 14.8709 4.23222 14.8785C4.36046 14.8861 4.48818 14.8566 4.60001 14.7933L8 13.0133L11.4 14.7933C11.4936 14.8461 11.5992 14.8737 11.7067 14.8733C11.8479 14.8738 11.9856 14.8295 12.1 14.7467C12.2034 14.6726 12.2835 14.5704 12.3308 14.4523C12.378 14.3342 12.3905 14.205 12.3667 14.08L11.7 10.2933L14.4533 7.62666C14.5496 7.54512 14.6207 7.43793 14.6585 7.31756C14.6963 7.19719 14.6991 7.06858 14.6667 6.94666Z" fill="#FFB342"/>
</svg>
